REM DIRINDEX 1\4,1\2\5,1\2\6,1\3\7,1\3\8
REM DIRNAME folder01,folder02,folder03,folder04,folder05,folder06,folder07,folder08
TITLE ""
FILE "065_Day33_Check2_Phrases.mp3" MP3
  TRACK 01 AUDIO
    TITLE "0:"
    INDEX 01 00:00:00
  TRACK 02 AUDIO
    TITLE "4:cjc124_2115"
    INDEX 01 00:00:33
  TRACK 03 AUDIO
    TITLE "0:"
    INDEX 01 00:01:58
  TRACK 04 AUDIO
    TITLE "5:cjc124_2116"
    INDEX 01 00:02:14
  TRACK 05 AUDIO
    TITLE "0:"
    INDEX 01 00:04:15
  TRACK 06 AUDIO
    TITLE "6:cjc124_2117"
    INDEX 01 00:04:35
  TRACK 07 AUDIO
    TITLE "0:"
    INDEX 01 00:06:22
  TRACK 08 AUDIO
    TITLE "5:cjc124_2118"
    INDEX 01 00:06:63
  TRACK 09 AUDIO
    TITLE "0:"
    INDEX 01 00:08:40
  TRACK 10 AUDIO
    TITLE "6:cjc124_2119"
    INDEX 01 00:08:60
  TRACK 11 AUDIO
    TITLE "0:"
    INDEX 01 00:09:73
  TRACK 12 AUDIO
    TITLE "5:cjc124_2120"
    INDEX 01 00:10:37
  TRACK 13 AUDIO
    TITLE "0:"
    INDEX 01 00:12:14
  TRACK 14 AUDIO
    TITLE "6:cjc124_2121"
    INDEX 01 00:12:34
  TRACK 15 AUDIO
    TITLE "0:"
    INDEX 01 00:13:69
  TRACK 16 AUDIO
    TITLE "5:cjc124_2122"
    INDEX 01 00:14:33
  TRACK 17 AUDIO
    TITLE "0:"
    INDEX 01 00:16:24
  TRACK 18 AUDIO
    TITLE "6:cjc124_2123"
    INDEX 01 00:16:49
  TRACK 19 AUDIO
    TITLE "0:"
    INDEX 01 00:18:44
  TRACK 20 AUDIO
    TITLE "5:cjc124_2124"
    INDEX 01 00:19:03
  TRACK 21 AUDIO
    TITLE "0:"
    INDEX 01 00:21:09
  TRACK 22 AUDIO
    TITLE "6:cjc124_2125"
    INDEX 01 00:21:27
  TRACK 23 AUDIO
    TITLE "0:"
    INDEX 01 00:23:01
  TRACK 24 AUDIO
    TITLE "5:cjc124_2126"
    INDEX 01 00:23:38
  TRACK 25 AUDIO
    TITLE "0:"
    INDEX 01 00:25:27
  TRACK 26 AUDIO
    TITLE "6:cjc124_2127"
    INDEX 01 00:25:48
  TRACK 27 AUDIO
    TITLE "0:"
    INDEX 01 00:27:16
  TRACK 28 AUDIO
    TITLE "5:cjc124_2128"
    INDEX 01 00:27:55
  TRACK 29 AUDIO
    TITLE "0:"
    INDEX 01 00:29:42
  TRACK 30 AUDIO
    TITLE "6:cjc124_2129"
    INDEX 01 00:29:62
  TRACK 31 AUDIO
    TITLE "0:"
    INDEX 01 00:31:49
  TRACK 32 AUDIO
    TITLE "5:cjc124_2130"
    INDEX 01 00:32:13
  TRACK 33 AUDIO
    TITLE "0:"
    INDEX 01 00:34:04
  TRACK 34 AUDIO
    TITLE "6:cjc124_2131"
    INDEX 01 00:34:24
  TRACK 35 AUDIO
    TITLE "0:"
    INDEX 01 00:35:10
  TRACK 36 AUDIO
    TITLE "5:cjc124_2132"
    INDEX 01 00:35:49
  TRACK 37 AUDIO
    TITLE "0:"
    INDEX 01 00:37:52
  TRACK 38 AUDIO
    TITLE "6:cjc124_2133"
    INDEX 01 00:38:00
  TRACK 39 AUDIO
    TITLE "0:"
    INDEX 01 00:39:70
  TRACK 40 AUDIO
    TITLE "5:cjc124_2134"
    INDEX 01 00:40:30
  TRACK 41 AUDIO
    TITLE "0:"
    INDEX 01 00:42:10
  TRACK 42 AUDIO
    TITLE "6:cjc124_2135"
    INDEX 01 00:42:33
  TRACK 43 AUDIO
    TITLE "0:"
    INDEX 01 00:44:03
  TRACK 44 AUDIO
    TITLE "5:cjc124_2136"
    INDEX 01 00:44:36
  TRACK 45 AUDIO
    TITLE "0:"
    INDEX 01 00:46:33
  TRACK 46 AUDIO
    TITLE "6:cjc124_2137"
    INDEX 01 00:46:53
  TRACK 47 AUDIO
    TITLE "0:"
    INDEX 01 00:48:24
  TRACK 48 AUDIO
    TITLE "5:cjc124_2138"
    INDEX 01 00:48:63
  TRACK 49 AUDIO
    TITLE "0:"
    INDEX 01 00:50:48
  TRACK 50 AUDIO
    TITLE "6:cjc124_2139"
    INDEX 01 00:50:66
  TRACK 51 AUDIO
    TITLE "0:"
    INDEX 01 00:52:61
  TRACK 52 AUDIO
    TITLE "5:cjc124_2140"
    INDEX 01 00:53:23
  TRACK 53 AUDIO
    TITLE "0:"
    INDEX 01 00:55:06
  TRACK 54 AUDIO
    TITLE "6:cjc124_2141"
    INDEX 01 00:55:26
  TRACK 55 AUDIO
    TITLE "0:"
    INDEX 01 00:57:03
  TRACK 56 AUDIO
    TITLE "5:cjc124_2142"
    INDEX 01 00:57:43
  TRACK 57 AUDIO
    TITLE "0:"
    INDEX 01 00:59:39
  TRACK 58 AUDIO
    TITLE "6:cjc124_2143"
    INDEX 01 00:59:55
  TRACK 59 AUDIO
    TITLE "0:"
    INDEX 01 01:01:54
  TRACK 60 AUDIO
    TITLE "5:cjc124_2144"
    INDEX 01 01:02:16
  TRACK 61 AUDIO
    TITLE "0:"
    INDEX 01 01:04:25
  TRACK 62 AUDIO
    TITLE "6:cjc124_2145"
    INDEX 01 01:04:43
  TRACK 63 AUDIO
    TITLE "0:"
    INDEX 01 01:06:28
  TRACK 64 AUDIO
    TITLE "5:cjc124_2146"
    INDEX 01 01:06:65
  TRACK 65 AUDIO
    TITLE "0:"
    INDEX 01 01:08:54
  TRACK 66 AUDIO
    TITLE "6:cjc124_2147"
    INDEX 01 01:08:74
  TRACK 67 AUDIO
    TITLE "0:"
    INDEX 01 01:10:31
